<?xml version="1.0" encoding="UTF-8" standalone="no"?>
<!-- Created with Inkscape (http://www.inkscape.org/) -->

<svg
   width="187.86314mm"
   height="187.49771mm"
   viewBox="0 0 187.86314 187.49771"
   version="1.1"
   id="svg1"
   xml:space="preserve"
   sodipodi:docname="iconos_avance.svg"
   inkscape:version="1.4 (86a8ad7, 2024-10-11)"
   xmlns:inkscape="http://www.inkscape.org/namespaces/inkscape"
   xmlns:sodipodi="http://sodipodi.sourceforge.net/DTD/sodipodi-0.dtd"
   xmlns="http://www.w3.org/2000/svg"
   xmlns:svg="http://www.w3.org/2000/svg"><sodipodi:namedview
     id="namedview1"
     pagecolor="#ffffff"
     bordercolor="#000000"
     borderopacity="0.25"
     inkscape:showpageshadow="2"
     inkscape:pageopacity="0.0"
     inkscape:pagecheckerboard="0"
     inkscape:deskcolor="#d1d1d1"
     inkscape:document-units="mm"
     showgrid="true"
     showguides="true"
     inkscape:lockguides="false"
     inkscape:zoom="1.4142136"
     inkscape:cx="317.8445"
     inkscape:cy="319.25871"
     inkscape:window-width="2560"
     inkscape:window-height="1494"
     inkscape:window-x="-11"
     inkscape:window-y="-11"
     inkscape:window-maximized="1"
     inkscape:current-layer="layer2"><inkscape:grid
       id="grid4"
       units="mm"
       originx="-291.1088"
       originy="26.388887"
       spacingx="0.99999998"
       spacingy="1"
       empcolor="#0099e5"
       empopacity="0.30196078"
       color="#0099e5"
       opacity="0.14901961"
       empspacing="5"
       enabled="true"
       visible="true" /><inkscape:page
       x="0"
       y="0"
       width="187.86314"
       height="187.49771"
       id="page2"
       margin="0"
       bleed="0" /></sodipodi:namedview><defs
     id="defs1" /><path
     style="fill:#ffffff;fill-opacity:1;stroke:#ffffff;stroke-width:0.499999;stroke-dasharray:none;stroke-opacity:1;paint-order:stroke fill markers"
     d="M 53.731937,70.915032 C 43.101905,69.703592 34.35859,68.666415 34.302392,68.610193 34.187722,68.495536 27.856666,27.668305 27.92641,27.49329 c 0.0372,-0.09337 41.121118,6.140355 41.237852,6.257085 0.02143,0.02138 1.009571,8.666009 2.195963,19.210283 1.186418,10.544276 2.186781,19.40293 2.223082,19.685902 0.04847,0.377907 -0.01244,0.508733 -0.229024,0.492789 -0.162242,-0.01193 -8.992314,-1.012878 -19.622346,-2.224317 z"
     id="path68"
     inkscape:export-filename="..\ULima_Frontend_IS2\assets\images\logo.svg"
     inkscape:export-xdpi="96"
     inkscape:export-ydpi="96" /><path
     style="fill:#ffffff;fill-opacity:1;stroke:#ffffff;stroke-width:0.499999;stroke-dasharray:none;stroke-opacity:1;paint-order:stroke fill markers"
     d="M 81.945992,49.387711 C 75.309025,41.055227 69.779101,34.092404 69.657287,33.914771 69.466787,33.637006 71.136943,31.27448 81.590127,17.035196 88.275011,7.9290639 93.84703,0.37788709 93.972389,0.25480372 94.15056,0.07984852 96.792662,3.5661403 106.08044,16.231533 c 6.53407,8.910285 12.07593,16.472577 12.31524,16.805096 l 0.43514,0.604579 -12.28098,15.410112 c -6.75458,8.475562 -12.338532,15.427267 -12.408832,15.448235 -0.07027,0.02098 -5.558049,-6.779363 -12.195016,-15.111844 z"
     id="path69" /><path
     style="fill:#ffffff;fill-opacity:1;stroke:#ffffff;stroke-width:0.499999;stroke-dasharray:none;stroke-opacity:1;paint-order:stroke fill markers"
     d="M 18.522934,106.90617 C 10.033778,100.6764 2.4887609,95.144615 1.7561825,94.613295 L 0.42427001,93.647264 16.878072,81.580044 c 9.04957,-6.636969 16.646578,-12.185171 16.882216,-12.329337 0.411162,-0.251571 1.050263,0.233588 15.886244,12.0597 8.501803,6.776998 15.395496,12.379928 15.319322,12.450953 -0.627459,0.58511 -30.771756,24.48615 -30.874308,24.47985 -0.07358,-0.005 -7.079456,-5.10528 -15.568612,-11.33504 z"
     id="path70" /><path
     style="fill:#ffffff;fill-opacity:1;stroke:#ffffff;stroke-width:0.499999;stroke-dasharray:none;stroke-opacity:1;paint-order:stroke fill markers"
     d="m 27.880452,159.81236 c 0.01535,-0.60716 6.335845,-41.04196 6.430301,-41.13641 0.122608,-0.12261 39.022999,-4.57767 39.226225,-4.49238 0.08774,0.0368 -4.270242,39.26971 -4.371313,39.35298 -0.01932,0.016 -9.16985,1.42962 -20.334367,3.14145 -11.164517,1.71182 -20.446444,3.14497 -20.626519,3.18478 -0.180076,0.0398 -0.32602,0.0171 -0.324327,-0.0504 z"
     id="path71" /><path
     style="fill:#ffffff;fill-opacity:1;stroke:#ffffff;stroke-width:0.499999;stroke-dasharray:none;stroke-opacity:1;paint-order:stroke fill markers"
     d="m 93.596813,186.59218 c -0.305276,-0.39061 -5.548921,-7.52959 -11.652541,-15.86439 -6.10362,-8.3348 -11.419998,-15.59185 -11.814148,-16.12677 l -0.716651,-0.9726 12.271666,-15.39766 c 6.749415,-8.46872 12.329001,-15.41957 12.39909,-15.44634 0.07011,-0.0268 5.666819,6.89989 12.437161,15.39257 l 12.30969,15.44123 -0.63632,0.88415 c -0.62103,0.8629 -23.904765,32.63483 -23.996575,32.74462 -0.0254,0.0305 -0.296096,-0.26419 -0.601372,-0.65481 z"
     id="path72" /><path
     style="fill:#ffffff;fill-opacity:1;stroke:#ffffff;stroke-width:0.499999;stroke-dasharray:none;stroke-opacity:1;paint-order:stroke fill markers"
     d="m 139.65982,156.72787 -20.58278,-3.17964 -2.21443,-19.62584 c -1.21796,-10.79421 -2.17903,-19.66125 -2.13577,-19.70452 0.0925,-0.0925 39.22373,4.31026 39.30967,4.42284 0.0997,0.13066 6.34511,41.16021 6.27362,41.21503 -0.0371,0.0285 -9.32977,-1.37907 -20.65031,-3.12787 z"
     id="path73" /><path
     style="fill:#ffffff;fill-opacity:1;stroke:#ffffff;stroke-width:0.499999;stroke-dasharray:none;stroke-opacity:1;paint-order:stroke fill markers"
     d="m 138.71653,106.04732 c -8.43405,-6.717132 -15.3365,-12.297157 -15.33874,-12.400056 -0.004,-0.196281 30.51923,-24.602159 30.76903,-24.602159 0.20005,0 33.42216,24.37965 33.47622,24.566133 0.0395,0.136168 -32.90663,24.393762 -33.37531,24.573612 -0.10814,0.0415 -7.09716,-5.4204 -15.5312,-12.13753 z"
     id="path74" /><path
     style="fill:#ffffff;fill-opacity:1;stroke:#ffffff;stroke-width:0.499999;stroke-dasharray:none;stroke-opacity:1;paint-order:stroke fill markers"
     d="m 114.67977,73.017159 c -0.004,-0.07521 0.98427,-8.949486 2.19554,-19.720623 l 2.20228,-19.583885 2.15427,-0.324219 c 1.18485,-0.17832 10.44699,-1.602524 20.58252,-3.164897 10.13552,-1.562373 18.45952,-2.81553 18.49778,-2.784794 0.11565,0.09291 -6.19199,40.938905 -6.34912,41.114704 -0.0802,0.08974 -8.59243,1.11519 -18.91604,2.27879 -10.32362,1.163598 -19.12803,2.16199 -19.56536,2.218648 -0.43733,0.05665 -0.79817,0.04148 -0.80187,-0.03372 z"
     id="path75" /></svg>
