<?xml version="1.0" encoding="UTF-8"?>
<svg id="Capa_1" xmlns="http://www.w3.org/2000/svg" version="1.1" viewBox="0 0 1180.4 1080">
  <!-- Generator: Adobe Illustrator 29.0.1, SVG Export Plug-In . SVG Version: 2.1.0 Build 192)  -->
  <g fill="#fa7525">
    <polygon points="513.2 317.2 496.3 167.5 339.3 143.4 363.5 300.3 513.2 317.2"/>
    <polygon points="667.3 317.2 817 300.3 841.1 143.4 684.2 167.5 667.3 317.2"/>
    <polygon points="590.2 285.3 684.1 167.5 590.2 39.5 496.3 167.5 590.2 285.3"/>
    <polygon points="817 300.4 699.2 394.3 817 488.1 945 394.3 817 300.4"/>
    <polygon points="667.3 471.3 684.2 621 841.1 645.2 817 488.2 667.3 471.3"/>
    <polygon points="590.2 503.2 496.3 621 590.2 749.1 684.1 621 590.2 503.2"/>
    <polygon points="481.2 394.3 363.4 300.4 235.4 394.3 363.4 488.1 481.2 394.3"/>
    <polygon points="513.2 471.3 363.5 488.2 339.3 645.2 496.3 621 513.2 471.3"/>
  </g>
  <g fill="#000000">
    <path d="M99.6,900.2c-9.9-3.9-15.1-10.4-17.4-19.6-1.8-6.6-2.3-16.4-2.3-35.5v-34.8c0-5.1-1-7.5-5.6-7.5h-6.9c-.9,0-1-.3-1-1.3v-3.2c0-.9.1-1.2,1.3-1.2s8.6.4,20,.4,18.4-.4,20-.4,1.3.3,1.3.9v3.8c0,.7-.1,1-1.2,1h-7.3c-4.2,0-6.7,2.8-7,6-.1,1.3-.3,11.5-.3,19v9.6c0,7.7.6,26.3.7,31,.1,6.7,1.3,13.6,4.7,18.6,5.4,7.9,14.8,10.5,23.2,10.5s16.8-2.8,21.9-8c5.7-6.1,7.6-14.9,7.6-25.7v-31.3c0-11.1-.3-19.6-.7-23.2-.4-3.8-2.8-6.4-6.6-6.4h-6.4c-.9,0-1-.4-1-1.2v-3.5c0-.7.1-1,1-1,1.5,0,8.2.4,18,.4s14.8-.4,16.1-.4,1.5.6,1.5,1v3.2c0,.9-.1,1.5-.9,1.5h-6c-5.4,0-5.8,4.1-6.3,5.8-.3,1.5-.3,22.2-.3,24.3s-.3,27.6-.7,33.3c-.9,12-4.1,21.2-12.3,28.2-5.8,5.4-14.8,8.8-27.5,8.8s-14.9-1-19.7-3.1Z"/>
    <path d="M194,816.6c0-8.6-4.4-13.4-9.6-13.6h-6c-.7-.1-.9-.7-.9-1.2v-3.8c0-.6.1-.9.9-.9s1.9.1,4.1.1c2.2.1,5.4.3,10.4.3s8-.3,9.8-.3,3.1.6,4.2,1.9c.7.9,29.1,37.7,30.7,39.8,1.6,2,26.3,32.3,29.8,37h.6v-17.4c0-13-.1-20.2-.4-27.5-.1-5.7-.9-20-1.8-22.5-1.2-3.7-3.9-5.7-8-5.7h-4.7c-.6,0-.9-.3-.9-1v-3.8c0-.6.3-.9.9-.9,2,0,6.7.4,16.1.4s12.3-.4,14.2-.4,1.2.4,1.2,1v3.7c0,.6-.3,1-.9,1h-3.9c-3.9,0-5.4,2.5-5.7,8-.6,9.8-.6,24.3-.6,33.8v54.7c0,2-.1,3.5-.7,3.5-1.8,0-3.1-1.8-3.5-2.3-.1-.3-8.8-11.1-17.8-22.5-10.2-12.7-20.9-26.2-21.8-27-1.6-1.5-28.5-35.2-29.4-36.4h-.9v32.4c0,13.6,1.2,37.4,1.5,40.3.6,5.7,1.5,8.5,5.4,8.5h4.4c1,0,1.2.4,1.2,1.3v3.2c0,.9-.1,1.2-1.2,1.2-1.5,0-10.2-.4-14.2-.4s-13.2.4-14.6.4-.7-.3-.7-1v-3.8c0-.4.1-.9.9-.9h5c4.2,0,5.8-1.8,6.6-8.9.3-2.8.6-19.4.6-45.5v-24.8Z"/>
    <path d="M310.9,839.9c0-3.5-.4-29.8-.6-32-.3-3.5-1.8-5-7.3-5h-8.5c-.7,0-1.2-.3-1.2-.9v-3.9c0-.6.4-.9,1-.9,1.8,0,9.2.4,22.8.4s17.7-.4,19.7-.4,1,.4,1,1v3.7c0,.7-.4,1-1.2,1h-6.9c-2.9,0-5.1,1.2-5.1,4.1s-.4,33.8-.4,35.5v11.3c0,1.5.4,35.2.4,36.8,0,4.5,2.2,5.3,6.9,5.3h6c.7,0,1.2.3,1.2,1v3.8c0,.6-.4.9-1.3.9-1.8,0-7.6-.4-20.3-.4s-20.2.4-21.8.4-1.2-.3-1.2-.9v-3.9c0-.6.4-.9,1.2-.9h8.2c2.9,0,6-.4,6.6-4.2.3-2.2.7-33.8.7-41.5v-10.2Z"/>
    <path d="M348.8,798.2c0-.7.1-1,1-1,1.5,0,6.3.4,17.7.4s18.9-.4,20.2-.4,1.5.4,1.5,1v3.4c0,.7-.1,1.3-1.2,1.3h-7c-4.1,0-6.1,1.3-6.1,3.8s.1,2.9.6,5c.9,5.3,6.3,22.7,8.9,30.8,1.8,5.6,10.2,30.7,13.6,39.6h.3c3.1-6.9,14.5-37,15.6-40.3,1.5-3.9,7-20.8,9.2-27.2,1.2-3.7,2-6.3,2-8.3s-1-3.4-4.7-3.4h-3.8c-.6,0-.7-.4-.7-1.3v-3.4c0-.7.1-1,.9-1,1.3,0,8,.4,17.2.4s14.3-.4,15.6-.4,1,.3,1,1v3.7c0,.6-.1,1-1,1h-3.9c-4.8,0-7.6,2.3-10.4,5.7-3.8,4.7-15.5,34.6-18,40.8-1.8,4.8-20.6,51.3-21.3,52.8-.6,1.2-1.3,1.9-2,1.9-1.2,0-1.8-1.5-2.5-3.4-4.7-13.4-16.5-46.8-18.4-52l-1.5-5c-3.5-10.4-10.4-31.6-12.3-36-1.5-3.4-2.9-4.8-6-4.8h-3.8c-.6,0-.7-.4-.7-1v-3.7Z"/>
    <path d="M482.7,845.1c1.2,0,16.8-.6,18.6-.9,4.2-.7,5.4-1.9,6.7-6.4.4-1.5,1-4.4,1.2-7.2,0-.7.4-1,1-1h3.7c.7.1,1,.7.9,1.3-.4,2.5-.4,14.5-.4,16.7,0,5.1.6,12.1.9,15.2,0,.7-.3,1-.9,1.2l-3.2.4c-.7.1-1-.3-1.2-1.3-.3-1.9-1.2-5.3-1.6-6.9-.9-3.1-2.5-5.3-6.3-5.7-6.9-.7-17-.7-19.3-.7v9.1c0,7.9.3,22.1.3,25,.1,7.6,3.8,10.5,8.3,11.4,2.9.6,7.2,1,10.8,1s9.8-.1,12.9-.4c2.5-.3,8.9-1.9,12.7-5.1,1.8-1.5,9.9-12,12-15.3.4-.7.9-1.3,1.8-.9l2.3,1.3c.7.4.7.9.3,2l-7.7,21.5c-.4,1.3-1.5,2.2-3.2,2.2s-13-.4-58.5-.4-16.1.4-18.7.4-1.3-.3-1.3-1v-3.9c0-.6.4-.7,1.5-.7h5.8c6.7,0,7.3-1,7.3-6.4v-49c0-12.1-.3-30.4-.4-31.9-.6-4.7-2-5.7-7.5-5.7h-5.3c-.7,0-1.2-.1-1.2-1v-3.9c0-.4.3-.7,1-.7,3.2,0,8.3.4,18,.4h6.4c14.5,0,28.9-.1,43.4-.1s5.1-.3,5.8-.3,1,.3,1.2.7c.6,2,7,22.1,7.5,23.5.1.6.1,1-.4,1.3l-2.2,1.2c-.4.3-1-.1-1.2-.4-.3-.6-11.1-14.5-14.6-16.7-3.1-2-7.2-3.8-11.1-3.9l-26-.6v42.8Z"/>
    <path d="M565.4,834.6c0-10.8,0-20.2-.1-24.4-.1-4.8-1.9-7.3-5.6-7.3h-5.8c-.7,0-.9-.4-.9-1v-3.7c0-.7.1-1,.9-1,1.3,0,5.8.4,18.1.4s21.8-.4,24.4-.4c12.1,0,21.8,3.7,27.3,8.9,4.8,4.7,7.6,11.3,7.6,16.7,0,18.3-8.3,25.1-27,29.2v.3c3.5,1.3,5.6,3.9,6.7,5.6,1.8,1.9,12.1,16.8,13.3,18.7.7,1.5,10.1,14.8,12.9,16.8,3.1,2.2,6.4,2.5,10.5,2.5s1.2.6,1.2,1.2v3.2c0,.9-.1,1.3-1.2,1.3s-5-.4-11.4-.4-9.6.3-11.8.4c-1.6-1.5-4.8-6.4-6.1-8.3-1.2-1.8-9.1-15.6-9.8-16.8-.6-1-7.6-11.5-9.4-13.6-3.8-4.5-7.3-8.5-15.8-8.5s-2.8,0-4.8.4v8.2c0,8.6.1,25,.3,27.2.3,3.1,1.5,5.7,3.7,5.7h9.2c1,0,1.2.4,1.2,1.2v3.2c0,1-.1,1.3-1.6,1.3s-5.3-.4-19.1-.4-16.7.4-18.3.4-1.2-.4-1.2-1.2v-3.4c0-.7,0-1.2.7-1.2h6c3.2,0,5.7-1,5.7-5,.3-14.5.3-28.2.3-42.1v-14.2ZM578.5,849.1c2.2.4,3.8.6,6.6.6,26.6,0,31.7-18.3,31.7-24.4s-3.1-13.2-7.3-16.7c-5.7-4.5-12.1-6.7-24.3-6.7s-3.7.3-5,1.2c-1,.7-1.8,2.3-1.8,4.7v41.4Z"/>
    <path d="M664.9,895.7c-1.8-1.3-2.6-1.8-3.4-1.8s-1.5,1-2.3,2.5c-.9,1.6-1.6,1.8-2.6,1.8s-1.6-.7-1.3-2.3c.6-3.7,2-22.2,2.5-26.5.1-.9.4-.9,1-.9h2.2c.6.1.9.4.9,1.3.1,4.7.4,9.5,5.3,17,4.4,6.9,12.4,10.8,20.5,10.8s19.9-5.4,19.9-18.6-10.8-20.6-22.5-24.7c-4.5-1.6-15.1-5.3-21.3-11.8-4.8-4.8-7.3-11.7-7.3-21.3s4.5-14.5,9.1-18.7c5.3-5,12.6-7,20.5-7s14.8,2.5,17.2,3.7c1.3.7,2,.6,2.8-.1l1.9-1.8c.7-.6,1.2-.9,1.9-.9s1.2,1.2,1.2,2.5c0,5.1,1.9,20,2,23.2,0,.7-.1,1-.7,1.2l-1.8.4c-.4.1-.7,0-.9-.4-1.2-4.2-3.1-9.9-9.1-16.2-3.9-4.2-9.1-6.3-15.9-6.3-13,0-17.7,9.6-17.7,17.1s.9,8.9,4.5,12.7c4.2,4.2,12.4,7.5,16.7,8.8,10.1,3.2,18.3,5.7,23.5,12.1,3.8,4.5,6.4,10.2,6.4,19.9,0,17.2-10.5,32-29.8,32s-17.4-3.1-23.2-7.6Z"/>
    <path d="M746,839.9c0-3.5-.4-29.8-.6-32-.3-3.5-1.8-5-7.3-5h-8.5c-.7,0-1.2-.3-1.2-.9v-3.9c0-.6.4-.9,1-.9,1.8,0,9.2.4,22.8.4s17.7-.4,19.7-.4,1,.4,1,1v3.7c0,.7-.4,1-1.2,1h-6.9c-2.9,0-5.1,1.2-5.1,4.1s-.4,33.8-.4,35.5v11.3c0,1.5.4,35.2.4,36.8,0,4.5,2.2,5.3,6.9,5.3h6c.7,0,1.2.3,1.2,1v3.8c0,.6-.4.9-1.3.9-1.8,0-7.6-.4-20.3-.4s-20.2.4-21.8.4-1.2-.3-1.2-.9v-3.9c0-.6.4-.9,1.2-.9h8.2c2.9,0,6-.4,6.6-4.2.3-2.2.7-33.8.7-41.5v-10.2Z"/>
    <path d="M800.7,834c0-3.8-.4-24.6-.7-27-.4-3.5-2.3-4.1-6.3-4.1h-8c-.7,0-1.2-.1-1.2-1v-3.9c0-.6.4-.7,1-.7,1.9,0,8.3.4,21.5.4s18.4-.4,21.8-.4c18.9,0,34.6,2.2,47.5,13.2,9.5,8.2,16.2,20.3,16.2,37.3s-4.8,27.9-14.5,38.4c-14,15.5-34.2,15.5-45.5,15.5s-20.3-.4-26.9-.4c-12.7,0-18.6.4-20.6.4s-1-.3-1-1v-3.8c0-.6.4-.9,1.2-.9h9.8c2.8,0,4.4-1.2,4.7-3.5.4-3.1,1-36,1-47.4v-11ZM814.1,848.2c0,1.9.1,26.7.3,35.8,0,2.9.6,5.3,2.5,8.2,2.3,3.1,8.2,4.7,15.5,4.7,14.9,0,27-6.4,34.3-15.8,6.1-7.6,10.7-19.6,10.7-32.9s-5-24.6-12-32.3c-7.6-8.3-20.5-14-36.7-14s-9.2,0-11.7,1.5c-2,1.3-2.6,3.7-2.8,6.9-.1,6.1-.1,25.3-.1,27.6v10.4Z"/>
    <path d="M924.7,860.5c-1.5,3.7-9.5,25.9-10.2,28.9-.1,1-.4,2.5-.4,3.2,0,2,1.8,3.2,5,3.2h6.9c1,0,1.5.3,1.5,1v3.4c0,1-.4,1.3-1.2,1.3-2,0-8-.4-16.7-.4s-13.9.4-15.9.4-1-.3-1-1.2v-3.5c0-.7.6-1,1.2-1h5.1c4.4,0,6.4-2,8.5-6.7,1-2.3,11.7-29.4,15.9-41.4,1-2.9,12.9-34.3,14.2-38.3.4-1.5,1.2-3.4.1-5-.4-.6-1-1.3-1-1.9s.3-1,1.3-1.3c4.1-.9,10.5-5.3,12.1-7.3.7-.7,1.2-1.3,1.9-1.3s1.2.9,1.6,2.5c2.8,9.2,14.2,41.9,17,51.3,3.4,11.4,12.9,38.6,14.9,42.8,2.5,4.8,6.3,6.6,9.9,6.6h4.8c.9,0,1.2.4,1.2,1v3.7c0,.7-.4,1-1.5,1-2.6,0-5.7-.4-17.5-.4s-17.2.4-20.6.4-1.2-.4-1.2-1.3v-3.4c0-.9.4-1,1.3-1h3.7c4.1,0,5.4-1.5,4.4-5.6-1.2-5.3-7.2-24-9.2-29.8h-36ZM958.9,855.2c-1.3-4.4-13.2-40.9-13.9-43.1-.4-1-.7-2-1.2-2s-1.2,1-1.6,2.2c-.7,1.9-14.6,39.3-15.6,43h32.3Z"/>
    <path d="M1022.2,834c0-3.8-.4-24.6-.7-27-.4-3.5-2.3-4.1-6.3-4.1h-8c-.7,0-1.2-.1-1.2-1v-3.9c0-.6.4-.7,1-.7,1.9,0,8.3.4,21.5.4s18.4-.4,21.8-.4c18.9,0,34.6,2.2,47.5,13.2,9.5,8.2,16.2,20.3,16.2,37.3s-4.8,27.9-14.5,38.4c-14,15.5-34.2,15.5-45.5,15.5s-20.3-.4-26.9-.4c-12.7,0-18.6.4-20.6.4s-1-.3-1-1v-3.8c0-.6.4-.9,1.2-.9h9.8c2.8,0,4.4-1.2,4.7-3.5.4-3.1,1-36,1-47.4v-11ZM1035.7,848.2c0,1.9.1,26.7.3,35.8,0,2.9.6,5.3,2.5,8.2,2.3,3.1,8.2,4.7,15.5,4.7,14.9,0,27-6.4,34.3-15.8,6.1-7.6,10.7-19.6,10.7-32.9s-5-24.6-12-32.3c-7.6-8.3-20.5-14-36.7-14s-9.2,0-11.7,1.5c-2,1.3-2.6,3.7-2.8,6.9-.1,6.1-.1,25.3-.1,27.6v10.4Z"/>
    <path d="M304.5,973c0-3.8-.4-24.6-.7-27-.4-3.5-2.3-4.1-6.3-4.1h-8c-.7,0-1.2-.1-1.2-1v-3.9c0-.6.4-.7,1-.7,1.9,0,8.3.4,21.5.4s18.4-.4,21.8-.4c18.9,0,34.6,2.2,47.5,13.2,9.5,8.2,16.2,20.3,16.2,37.3s-4.8,27.9-14.5,38.4c-14,15.5-34.2,15.5-45.5,15.5s-20.3-.4-26.9-.4c-12.7,0-18.6.4-20.6.4s-1-.3-1-1v-3.8c0-.6.4-.9,1.2-.9h9.8c2.8,0,4.4-1.2,4.7-3.5.4-3.1,1-36,1-47.4v-11ZM318,987.2c0,1.9.1,26.7.3,35.8,0,2.9.6,5.3,2.5,8.2,2.3,3.1,8.2,4.7,15.5,4.7,14.9,0,27-6.4,34.3-15.8,6.1-7.6,10.7-19.6,10.7-32.9s-5-24.6-12-32.3c-7.6-8.3-20.5-14-36.7-14s-9.2,0-11.7,1.5c-2,1.3-2.6,3.7-2.8,6.9-.1,6.1-.1,25.3-.1,27.6v10.4Z"/>
    <path d="M437.2,984.1c1.2,0,16.8-.6,18.6-.9,4.2-.7,5.4-1.9,6.7-6.4.4-1.5,1-4.4,1.2-7.2,0-.7.4-1,1-1h3.7c.7.1,1,.7.9,1.3-.4,2.5-.4,14.5-.4,16.7,0,5.1.6,12.1.9,15.2,0,.7-.3,1-.9,1.2l-3.2.4c-.7.1-1-.3-1.2-1.3-.3-1.9-1.2-5.3-1.6-6.9-.9-3.1-2.5-5.3-6.3-5.7-6.9-.7-17-.7-19.3-.7v9.1c0,7.9.3,22.1.3,25,.1,7.6,3.8,10.5,8.3,11.4,2.9.6,7.2,1,10.8,1s9.8-.1,12.9-.4c2.5-.3,8.9-1.9,12.7-5.1,1.8-1.5,9.9-12,12-15.3.4-.7.9-1.3,1.8-.9l2.3,1.3c.7.4.7.9.3,2l-7.7,21.5c-.4,1.3-1.5,2.2-3.2,2.2s-13-.4-58.5-.4-16.1.4-18.7.4-1.3-.3-1.3-1v-3.9c0-.6.4-.7,1.5-.7h5.8c6.7,0,7.3-1,7.3-6.4v-49c0-12.1-.3-30.4-.4-31.9-.6-4.7-2-5.7-7.5-5.7h-5.3c-.7,0-1.2-.1-1.2-1v-3.9c0-.4.3-.7,1-.7,3.2,0,8.3.4,18,.4h6.4c14.5,0,28.9-.1,43.4-.1s5.1-.3,5.8-.3,1,.3,1.2.7c.6,2,7,22.1,7.5,23.5.1.6.1,1-.4,1.3l-2.2,1.2c-.4.3-1-.1-1.2-.4-.3-.6-11.1-14.5-14.6-16.7-3.1-2-7.2-3.8-11.1-3.9l-26-.6v42.8Z"/>
    <path d="M560.8,974.6c0-9.4-.3-24.8-.4-27.5-.3-3.8-1-5.3-5.4-5.3h-6.9c-.9,0-1-.7-1-1.5v-3.2c0-.7.1-1,1-1,1.6,0,6.9.4,19,.4s20.3-.4,21.6-.4,1.3.4,1.3,1.2v3.4c0,.7-.3,1.2-1.5,1.2h-8.8c-4.5,0-5.1,1.5-5.1,5.7s-.4,24-.4,34.2v12.6c0,2.5,0,34.1.4,40,3.2.3,32.2.6,36.7,0,8.6-1.3,17.4-18.9,19.4-24.6.3-.6.6-.9,1.2-.6l2.3.9c.4.3.4.4.3,1.3-.4,1-6.3,25.1-7.2,29.1-3.8-.3-45.9-.4-61.5-.4s-16.8.4-18.7.4-1.2-.3-1.2-1v-3.7c0-.7.1-1,1-1h7c5.4,0,6.3-2,6.3-3.9,0-2.8.4-39.2.4-48.1v-8.2Z"/>
    <path d="M653.2,978.9c0-3.5-.4-29.8-.6-32-.3-3.5-1.8-5-7.3-5h-8.5c-.7,0-1.2-.3-1.2-.9v-3.9c0-.6.4-.9,1-.9,1.8,0,9.2.4,22.8.4s17.7-.4,19.7-.4,1,.4,1,1v3.7c0,.7-.4,1-1.2,1h-6.9c-2.9,0-5.1,1.2-5.1,4.1s-.4,33.8-.4,35.5v11.3c0,1.5.4,35.2.4,36.8,0,4.5,2.2,5.3,6.9,5.3h6c.7,0,1.2.3,1.2,1v3.8c0,.6-.4.9-1.3.9-1.8,0-7.6-.4-20.3-.4s-20.2.4-21.8.4-1.2-.3-1.2-.9v-3.9c0-.6.4-.9,1.2-.9h8.2c2.9,0,6-.4,6.6-4.2.3-2.2.7-33.8.7-41.5v-10.2Z"/>
    <path d="M758.1,1016.7c2-2.2,16.7-37.1,17.8-39,1-2,17-36.4,17.4-39.3.3-1.6,1.9-1.8,3.4-1.8,19.4,0,24.4-.4,26-.4s.9.4.9,1v3.4c0,.9-.1,1.3-1.2,1.3h-6.4c-4.4,0-4.8,2.6-4.8,6s-.4,25.1-.4,34.9v10.2c0,7.3.4,31,.4,33.9,0,5.6,1.3,7.9,5,7.9h8.6c.9,0,1,.4,1,1v3.4c0,.9-.1,1.3-1.3,1.3-1.8,0-4.4-.4-20.5-.4s-19.1.4-21,.4-1.2-.4-1.2-1.3v-3.4c0-.7.1-1,1.2-1h9.9c2.5,0,3.8-.9,4.1-5.3.1-1.8.3-27.2.3-38v-9.4c0-9.6,0-35.7-.4-37h-.3c-1.5,1.9-22.2,47.9-22.9,49.4-.9,1.8-17.1,39-17.7,40.3-.6,1.3-1.8,3.5-2.9,3.5s-1.6-1.2-2.2-2.6c-.4-1-19.1-47.2-19.9-49-2.8-6.7-16.1-39.5-18.1-41.2-.6,2-.9,39-.9,40.8s-.1,32.6.3,37.7c.7,8.3,2,10.7,6.7,10.7h7.3c.9,0,1,.4,1,1v3.7c0,.6-.1,1-1.3,1s-5.6-.4-17.7-.4-17.5.4-18.9.4-1.3-.1-1.3-1.3v-3.5c0-.4.1-.9.9-.9h7.7c5.6,0,6.9-3.8,7.7-8.8,1.8-10.4,2.2-47.8,2.2-50.4s0-24.1-.1-28.4c-.1-3.4,0-5.4-6-5.4h-8.9c-.9,0-1-.4-1-1v-3.8c0-.4.1-.9,1-.9,1.5,0,5.4.4,17.8.4s10.7-.4,12.4-.4,3.1.6,3.8,2.5l32.4,78Z"/>
    <path d="M862.3,999.5c-1.5,3.7-9.5,25.9-10.2,28.9-.1,1-.4,2.5-.4,3.2,0,2,1.8,3.2,5,3.2h6.9c1,0,1.5.3,1.5,1v3.4c0,1-.4,1.3-1.2,1.3-2,0-8-.4-16.7-.4s-13.9.4-15.9.4-1-.3-1-1.2v-3.5c0-.7.6-1,1.2-1h5.1c4.4,0,6.4-2,8.5-6.7,1-2.3,11.7-29.4,15.9-41.4,1-2.9,12.9-34.3,14.2-38.3.4-1.5,1.2-3.4.1-5-.4-.6-1-1.3-1-1.9s.3-1,1.3-1.3c4.1-.9,10.5-5.3,12.1-7.3.7-.7,1.2-1.3,1.9-1.3s1.2.9,1.6,2.5c2.8,9.2,14.2,41.9,17,51.3,3.4,11.4,12.9,38.6,14.9,42.8,2.5,4.8,6.3,6.6,9.9,6.6h4.8c.9,0,1.2.4,1.2,1v3.7c0,.7-.4,1-1.5,1-2.6,0-5.7-.4-17.5-.4s-17.2.4-20.6.4-1.2-.4-1.2-1.3v-3.4c0-.9.4-1,1.3-1h3.7c4.1,0,5.4-1.5,4.4-5.6-1.2-5.3-7.2-24-9.2-29.8h-36ZM896.5,994.2c-1.3-4.4-13.2-40.9-13.9-43.1-.4-1-.7-2-1.2-2s-1.2,1-1.6,2.2c-.7,1.9-14.6,39.3-15.6,43h32.3Z"/>
  </g>
</svg>
